# xmcd CD database file
#
# Track frame offsets:
#	150
#	26909
#	61475
#	91440
#	100485
#	110248
#	121539
#	142087
#	153412
#
# Disc length: 2429 seconds
#
# Revision: 0
# Processed by: cddbd v1.5.2PL0 Copyright (c) Steve Scherf et al.
# Submitted via: CDex 2.23
#
DISCID=7f097b09
DTITLE=Dave Brubeck - Time Out CD2
DYEAR=2010
DGENRE=Jazz
TTITLE0=Swanee River
TTITLE1=The Lonesome Road
TTITLE2=Georgia On My Mind
TTITLE3=Camptown Races
TTITLE4=Camptown Races
TTITLE5=Short'nin' Bread
TTITLE6=Basin Street Blues
TTITLE7=Ol' Man River
TTITLE8=Gone With The Wind
EXTD=YEAR: 2010
EXTT0=
EXTT1=
EXTT2=
EXTT3=
EXTT4=
EXTT5=
EXTT6=
EXTT7=
EXTT8=
PLAYORDER=
